<svg
	version="1.1"
	id="Layer_1"
	xmlns="http://www.w3.org/2000/svg"
	xmlns:xlink="http://www.w3.org/1999/xlink"
	x="0px"
	y="0px"
	viewBox="0 0 512 512"
	style="enable-background: new 0 0 512 512"
	xml:space="preserve"
	fill="#4a515d"
>
			<g>
			<path
				d="M256,369.8v28.4c15.7,0,28.4,12.8,28.4,28.4c0,15.7-12.8,28.4-28.4,28.4c-15.7,0-28.4-12.8-28.4-28.4
c0-15.7,12.8-28.4,28.4-28.4V369.8v-28.4c-47.1,0-85.3,38.2-85.3,85.3c0,47.1,38.2,85.3,85.3,85.3c47.1,0,85.3-38.2,85.3-85.3
c0-47.1-38.2-85.3-85.3-85.3V369.8z"
			/>
			<path
				d="M113.8,28.4v28.4c15.7,0,28.4,12.8,28.4,28.4c0,15.7-12.8,28.4-28.4,28.4c-15.7,0-28.4-12.8-28.4-28.4
c0-15.7,12.8-28.4,28.4-28.4V28.4V0C66.6,0,28.5,38.2,28.4,85.3c0,47.1,38.2,85.3,85.3,85.3c47.1,0,85.3-38.2,85.3-85.3
c0-47.1-38.2-85.3-85.3-85.3V28.4z"
			/>
			<path
				d="M398.2,28.4v28.4c15.7,0,28.4,12.8,28.4,28.4c0,15.7-12.8,28.4-28.4,28.4c-15.7,0-28.4-12.8-28.4-28.4
c0-15.7,12.8-28.4,28.4-28.4V28.4V0c-47.1,0-85.3,38.2-85.3,85.3c0,47.1,38.2,85.3,85.3,85.3c47.1,0,85.3-38.2,85.3-85.3
c0-47.1-38.2-85.3-85.3-85.3V28.4z"
			/>
			<path
				d="M85.3,142.2v56.9c0,47.1,38.2,85.3,85.3,85.3h170.7c47.1,0,85.3-38.2,85.3-85.3v-56.9c0-15.7-12.7-28.4-28.4-28.4
s-28.4,12.7-28.4,28.4v56.9c0,15.7-12.8,28.4-28.4,28.4H170.7c-15.7,0-28.4-12.8-28.4-28.4l0-56.9c0-15.7-12.7-28.4-28.4-28.4
S85.3,126.5,85.3,142.2z"
			/>
			<path
				d="M227.6,256v113.8c0,15.7,12.7,28.4,28.4,28.4c15.7,0,28.4-12.7,28.4-28.4V256c0-15.7-12.7-28.4-28.4-28.4
C240.3,227.6,227.6,240.3,227.6,256"
			/>
			</g>
		</svg>